<mxfile host="app.diagrams.net" modified="2020-03-26T00:52:05.394Z" agent="Mozilla/5.0 (Windows NT 6.1; WOW64) AppleWebKit/537.36 (KHTML, like Gecko) Chrome/78.0.3904.87 Safari/537.36" etag="m8jJRp5goGho-G6o4Sv5" version="12.8.8" type="github">
  <diagram id="0awdhuP9f5cP21-ajzdM" name="Page-1">
    <mxGraphModel dx="981" dy="549" grid="1" gridSize="10" guides="1" tooltips="1" connect="1" arrows="1" fold="1" page="1" pageScale="1" pageWidth="850" pageHeight="1100" math="0" shadow="0">
      <root>
        <mxCell id="0" />
        <mxCell id="1" parent="0" />
        <mxCell id="nqwpIMMd3DfXtCZa2ql5-3" value="DB" style="shape=cylinder;whiteSpace=wrap;html=1;boundedLbl=1;backgroundOutline=1;" parent="1" vertex="1">
          <mxGeometry x="610" y="158" width="60" height="80" as="geometry" />
        </mxCell>
        <mxCell id="OjG0B7UpRFmu7RwJZuoT-1" style="edgeStyle=orthogonalEdgeStyle;rounded=0;orthogonalLoop=1;jettySize=auto;html=1;exitX=0.5;exitY=1;exitDx=0;exitDy=0;entryX=0.5;entryY=0;entryDx=0;entryDy=0;endArrow=classic;endFill=1;" edge="1" parent="1" source="nqwpIMMd3DfXtCZa2ql5-4" target="dBBBHmRIFNEjMnSifeSV-1">
          <mxGeometry relative="1" as="geometry" />
        </mxCell>
        <mxCell id="nqwpIMMd3DfXtCZa2ql5-4" value="IAA Web" style="rounded=0;whiteSpace=wrap;html=1;" parent="1" vertex="1">
          <mxGeometry x="342" y="47" width="120" height="60" as="geometry" />
        </mxCell>
        <mxCell id="dBBBHmRIFNEjMnSifeSV-7" style="edgeStyle=orthogonalEdgeStyle;rounded=0;orthogonalLoop=1;jettySize=auto;html=1;exitX=1;exitY=0.5;exitDx=0;exitDy=0;startArrow=none;startFill=0;" parent="1" source="dBBBHmRIFNEjMnSifeSV-1" target="nqwpIMMd3DfXtCZa2ql5-3" edge="1">
          <mxGeometry relative="1" as="geometry" />
        </mxCell>
        <mxCell id="dBBBHmRIFNEjMnSifeSV-12" style="edgeStyle=orthogonalEdgeStyle;rounded=0;orthogonalLoop=1;jettySize=auto;html=1;exitX=0.5;exitY=1;exitDx=0;exitDy=0;entryX=0.5;entryY=0;entryDx=0;entryDy=0;startArrow=none;startFill=0;" parent="1" source="dBBBHmRIFNEjMnSifeSV-1" target="dBBBHmRIFNEjMnSifeSV-9" edge="1">
          <mxGeometry relative="1" as="geometry" />
        </mxCell>
        <mxCell id="dBBBHmRIFNEjMnSifeSV-1" value="IAA Services" style="rounded=0;whiteSpace=wrap;html=1;" parent="1" vertex="1">
          <mxGeometry x="342" y="168" width="120" height="60" as="geometry" />
        </mxCell>
        <mxCell id="dBBBHmRIFNEjMnSifeSV-6" style="edgeStyle=orthogonalEdgeStyle;rounded=0;orthogonalLoop=1;jettySize=auto;html=1;exitX=1;exitY=0.5;exitDx=0;exitDy=0;entryX=0;entryY=0.5;entryDx=0;entryDy=0;startArrow=none;startFill=0;" parent="1" source="dBBBHmRIFNEjMnSifeSV-2" target="dBBBHmRIFNEjMnSifeSV-1" edge="1">
          <mxGeometry relative="1" as="geometry" />
        </mxCell>
        <mxCell id="dBBBHmRIFNEjMnSifeSV-2" value="Data Services" style="rounded=0;whiteSpace=wrap;html=1;" parent="1" vertex="1">
          <mxGeometry x="82" y="168" width="120" height="60" as="geometry" />
        </mxCell>
        <mxCell id="dBBBHmRIFNEjMnSifeSV-8" value="&lt;ul&gt;&lt;li&gt;productId&lt;/li&gt;&lt;li&gt;riskVersion&lt;/li&gt;&lt;li&gt;insurerIds&lt;/li&gt;&lt;li&gt;riskData&lt;/li&gt;&lt;/ul&gt;" style="whiteSpace=wrap;html=1;aspect=fixed;dashed=1;strokeColor=none;align=left;opacity=0;" parent="1" vertex="1">
          <mxGeometry x="202" y="188" width="80" height="80" as="geometry" />
        </mxCell>
        <mxCell id="dBBBHmRIFNEjMnSifeSV-9" value="Rule Engine" style="whiteSpace=wrap;html=1;aspect=fixed;dashed=1;" parent="1" vertex="1">
          <mxGeometry x="362" y="358" width="80" height="80" as="geometry" />
        </mxCell>
        <mxCell id="dBBBHmRIFNEjMnSifeSV-14" value="&lt;ul&gt;&lt;li&gt;rule&lt;/li&gt;&lt;li&gt;riskData&lt;/li&gt;&lt;/ul&gt;" style="whiteSpace=wrap;html=1;aspect=fixed;dashed=1;strokeColor=none;align=left;opacity=0;" parent="1" vertex="1">
          <mxGeometry x="382" y="258" width="80" height="80" as="geometry" />
        </mxCell>
        <mxCell id="dBBBHmRIFNEjMnSifeSV-15" value="&lt;ul&gt;&lt;li&gt;iaaRule&lt;/li&gt;&lt;/ul&gt;" style="whiteSpace=wrap;html=1;aspect=fixed;dashed=1;strokeColor=none;align=left;opacity=0;" parent="1" vertex="1">
          <mxGeometry x="442" y="168" width="80" height="80" as="geometry" />
        </mxCell>
        <mxCell id="OjG0B7UpRFmu7RwJZuoT-2" value="&lt;ul&gt;&lt;li&gt;iaaRule&lt;/li&gt;&lt;/ul&gt;" style="whiteSpace=wrap;html=1;aspect=fixed;dashed=1;strokeColor=none;align=left;opacity=0;" vertex="1" parent="1">
          <mxGeometry x="382" y="88" width="80" height="80" as="geometry" />
        </mxCell>
      </root>
    </mxGraphModel>
  </diagram>
</mxfile>
